<?xml version="1.0" encoding="us-ascii" standalone="no"?><svg xmlns="http://www.w3.org/2000/svg" xmlns:xlink="http://www.w3.org/1999/xlink" contentStyleType="text/css" height="1317px" preserveAspectRatio="none" style="width:2056px;height:1317px;background:#FFFFFF;" version="1.1" viewBox="0 0 2056 1317" width="2056px" zoomAndPan="magnify"><defs/><g><!--class BoardView--><g id="elem_BoardView"><rect codeLine="8" fill="#F1F1F1" height="210.9688" id="BoardView" rx="2.5" ry="2.5" style="stroke:#181818;stroke-width:0.5;" width="229" x="1064" y="819.5"/><ellipse cx="1136.25" cy="835.5" fill="#8FBC8F" rx="11" ry="11" style="stroke:#181818;stroke-width:1.0;"/><path d="M1138.5938,831.1719 C1137.6563,830.7344 1137.0625,830.5938 1136.1875,830.5938 C1133.5625,830.5938 1131.5625,832.6719 1131.5625,835.3906 L1131.5625,836.5156 C1131.5625,839.0938 1133.6719,840.9844 1136.5625,840.9844 C1137.7813,840.9844 1138.9375,840.6875 1139.6875,840.1406 C1140.2656,839.7344 1140.5938,839.2813 1140.5938,838.8906 C1140.5938,838.4375 1140.2031,838.0469 1139.7344,838.0469 C1139.5156,838.0469 1139.3125,838.125 1139.125,838.3125 C1138.6719,838.7969 1138.6719,838.7969 1138.4844,838.8906 C1138.0625,839.1563 1137.375,839.2813 1136.6094,839.2813 C1134.5625,839.2813 1133.2656,838.1875 1133.2656,836.4844 L1133.2656,835.3906 C1133.2656,833.6094 1134.5156,832.2969 1136.25,832.2969 C1136.8281,832.2969 1137.4375,832.4531 1137.9063,832.7031 C1138.3906,832.9844 1138.5625,833.2031 1138.6563,833.6094 C1138.7188,834.0156 1138.75,834.1406 1138.8906,834.2656 C1139.0313,834.4063 1139.2656,834.5156 1139.4844,834.5156 C1139.75,834.5156 1140.0156,834.375 1140.1875,834.1563 C1140.2969,834 1140.3281,833.8125 1140.3281,833.3906 L1140.3281,831.9688 C1140.3281,831.5313 1140.3125,831.4063 1140.2188,831.25 C1140.0625,830.9844 1139.7813,830.8438 1139.4844,830.8438 C1139.1875,830.8438 1138.9844,830.9375 1138.7656,831.25 L1138.5938,831.1719 Z " fill="#000000"/><text fill="#000000" font-family="sans-serif" font-size="14" lengthAdjust="spacing" textLength="76" x="1156.75" y="840.3467">BoardView</text><line style="stroke:#181818;stroke-width:0.5;" x1="1065" x2="1292" y1="851.5" y2="851.5"/><polygon fill="none" points="1075,861.1484,1071,867.1484,1079,867.1484" style="stroke:#1963A0;stroke-width:1.0;"/><text fill="#000000" font-family="sans-serif" font-size="14" lengthAdjust="spacing" textLength="33" x="1084" y="868.4951">rows</text><polygon fill="none" points="1075,877.4453,1071,883.4453,1079,883.4453" style="stroke:#1963A0;stroke-width:1.0;"/><text fill="#000000" font-family="sans-serif" font-size="14" lengthAdjust="spacing" textLength="59" x="1084" y="884.792">columns</text><polygon fill="none" points="1075,893.7422,1071,899.7422,1079,899.7422" style="stroke:#1963A0;stroke-width:1.0;"/><text fill="#000000" font-family="sans-serif" font-size="14" lengthAdjust="spacing" textLength="158" x="1084" y="901.0889">holeSpacing : CGFloat</text><polygon fill="none" points="1075,910.0391,1071,916.0391,1079,916.0391" style="stroke:#1963A0;stroke-width:1.0;"/><text fill="#000000" font-family="sans-serif" font-size="14" lengthAdjust="spacing" textLength="131" x="1084" y="917.3857">holeSize : CGFloat</text><polygon fill="none" points="1075,926.3359,1071,932.3359,1079,932.3359" style="stroke:#1963A0;stroke-width:1.0;"/><text fill="#000000" font-family="sans-serif" font-size="14" lengthAdjust="spacing" textLength="200" x="1084" y="933.6826">boardMask : CAShapeLayer!</text><polygon fill="none" points="1075,942.6328,1071,948.6328,1079,948.6328" style="stroke:#1963A0;stroke-width:1.0;"/><text fill="#000000" font-family="sans-serif" font-size="14" lengthAdjust="spacing" textLength="203" x="1084" y="949.9795">columnMidpoints : [CGFloat]</text><line style="stroke:#181818;stroke-width:0.5;" x1="1065" x2="1292" y1="957.2813" y2="957.2813"/><polygon fill="#4177AF" points="1075,966.9297,1071,972.9297,1079,972.9297" style="stroke:#1963A0;stroke-width:1.0;"/><text fill="#000000" font-family="sans-serif" font-size="14" lengthAdjust="spacing" textLength="56" x="1084" y="974.2764">draw(_:)</text><polygon fill="#4177AF" points="1075,983.2266,1071,989.2266,1079,989.2266" style="stroke:#1963A0;stroke-width:1.0;"/><text fill="#000000" font-family="sans-serif" font-size="14" lengthAdjust="spacing" textLength="136" x="1084" y="990.5732">calculateHoleSize()</text><rect fill="#F24D5C" height="6" style="stroke:#C82930;stroke-width:1.0;" width="6" x="1072" y="1000.5234"/><text fill="#000000" font-family="sans-serif" font-size="14" lengthAdjust="spacing" textLength="93" x="1084" y="1006.8701">setupBoard()</text><polygon fill="#4177AF" points="1075,1015.8203,1071,1021.8203,1079,1021.8203" style="stroke:#1963A0;stroke-width:1.0;"/><text fill="#000000" font-family="sans-serif" font-size="14" lengthAdjust="spacing" textLength="135" x="1084" y="1023.167">createBoardMask()</text></g><!--class DiscBehavior--><g id="elem_DiscBehavior"><rect codeLine="20" fill="#F1F1F1" height="162.0781" id="DiscBehavior" rx="2.5" ry="2.5" style="stroke:#181818;stroke-width:0.5;" width="308" x="1132.5" y="319.5"/><ellipse cx="1235.75" cy="335.5" fill="#8FBC8F" rx="11" ry="11" style="stroke:#181818;stroke-width:1.0;"/><path d="M1238.0938,331.1719 C1237.1563,330.7344 1236.5625,330.5938 1235.6875,330.5938 C1233.0625,330.5938 1231.0625,332.6719 1231.0625,335.3906 L1231.0625,336.5156 C1231.0625,339.0938 1233.1719,340.9844 1236.0625,340.9844 C1237.2813,340.9844 1238.4375,340.6875 1239.1875,340.1406 C1239.7656,339.7344 1240.0938,339.2813 1240.0938,338.8906 C1240.0938,338.4375 1239.7031,338.0469 1239.2344,338.0469 C1239.0156,338.0469 1238.8125,338.125 1238.625,338.3125 C1238.1719,338.7969 1238.1719,338.7969 1237.9844,338.8906 C1237.5625,339.1563 1236.875,339.2813 1236.1094,339.2813 C1234.0625,339.2813 1232.7656,338.1875 1232.7656,336.4844 L1232.7656,335.3906 C1232.7656,333.6094 1234.0156,332.2969 1235.75,332.2969 C1236.3281,332.2969 1236.9375,332.4531 1237.4063,332.7031 C1237.8906,332.9844 1238.0625,333.2031 1238.1563,333.6094 C1238.2188,334.0156 1238.25,334.1406 1238.3906,334.2656 C1238.5313,334.4063 1238.7656,334.5156 1238.9844,334.5156 C1239.25,334.5156 1239.5156,334.375 1239.6875,334.1563 C1239.7969,334 1239.8281,333.8125 1239.8281,333.3906 L1239.8281,331.9688 C1239.8281,331.5313 1239.8125,331.4063 1239.7188,331.25 C1239.5625,330.9844 1239.2813,330.8438 1238.9844,330.8438 C1238.6875,330.8438 1238.4844,330.9375 1238.2656,331.25 L1238.0938,331.1719 Z " fill="#000000"/><text fill="#000000" font-family="sans-serif" font-size="14" lengthAdjust="spacing" textLength="93" x="1256.25" y="340.3467">DiscBehavior</text><line style="stroke:#181818;stroke-width:0.5;" x1="1133.5" x2="1439.5" y1="351.5" y2="351.5"/><rect fill="none" height="6" style="stroke:#C82930;stroke-width:1.0;" width="6" x="1140.5" y="362.1484"/><text fill="#000000" font-family="sans-serif" font-size="14" lengthAdjust="spacing" textLength="50" x="1152.5" y="368.4951">gravity</text><polygon fill="none" points="1143.5,377.4453,1139.5,383.4453,1147.5,383.4453" style="stroke:#1963A0;stroke-width:1.0;"/><text fill="#000000" font-family="sans-serif" font-size="14" lengthAdjust="spacing" textLength="202" x="1152.5" y="384.792">collider : UICollisionBehavior</text><rect fill="none" height="6" style="stroke:#C82930;stroke-width:1.0;" width="6" x="1140.5" y="394.7422"/><text fill="#000000" font-family="sans-serif" font-size="14" lengthAdjust="spacing" textLength="282" x="1152.5" y="401.0889">itemBehavior : UIDynamicItemBehavior</text><line style="stroke:#181818;stroke-width:0.5;" x1="1133.5" x2="1439.5" y1="408.3906" y2="408.3906"/><polygon fill="#4177AF" points="1143.5,418.0391,1139.5,424.0391,1147.5,424.0391" style="stroke:#1963A0;stroke-width:1.0;"/><text fill="#000000" font-family="sans-serif" font-size="14" lengthAdjust="spacing" textLength="34" x="1152.5" y="425.3857">init()</text><polygon fill="#4177AF" points="1143.5,434.3359,1139.5,440.3359,1147.5,440.3359" style="stroke:#1963A0;stroke-width:1.0;"/><text fill="#000000" font-family="sans-serif" font-size="14" lengthAdjust="spacing" textLength="78" x="1152.5" y="441.6826">addDisc(_:)</text><polygon fill="#4177AF" points="1143.5,450.6328,1139.5,456.6328,1147.5,456.6328" style="stroke:#1963A0;stroke-width:1.0;"/><text fill="#000000" font-family="sans-serif" font-size="14" lengthAdjust="spacing" textLength="107" x="1152.5" y="457.9795">removeDisc(_:)</text><polygon fill="#4177AF" points="1143.5,466.9297,1139.5,472.9297,1147.5,472.9297" style="stroke:#1963A0;stroke-width:1.0;"/><text fill="#000000" font-family="sans-serif" font-size="14" lengthAdjust="spacing" textLength="151" x="1152.5" y="474.2764">addBarrier(_:named:)</text></g><!--class TableViewController--><g id="elem_TableViewController"><rect codeLine="29" fill="#F1F1F1" height="276.1563" id="TableViewController" rx="2.5" ry="2.5" style="stroke:#181818;stroke-width:0.5;" width="573" x="1476" y="262.5"/><ellipse cx="1684.75" cy="278.5" fill="#8FBC8F" rx="11" ry="11" style="stroke:#181818;stroke-width:1.0;"/><path d="M1687.0938,274.1719 C1686.1563,273.7344 1685.5625,273.5938 1684.6875,273.5938 C1682.0625,273.5938 1680.0625,275.6719 1680.0625,278.3906 L1680.0625,279.5156 C1680.0625,282.0938 1682.1719,283.9844 1685.0625,283.9844 C1686.2813,283.9844 1687.4375,283.6875 1688.1875,283.1406 C1688.7656,282.7344 1689.0938,282.2813 1689.0938,281.8906 C1689.0938,281.4375 1688.7031,281.0469 1688.2344,281.0469 C1688.0156,281.0469 1687.8125,281.125 1687.625,281.3125 C1687.1719,281.7969 1687.1719,281.7969 1686.9844,281.8906 C1686.5625,282.1563 1685.875,282.2813 1685.1094,282.2813 C1683.0625,282.2813 1681.7656,281.1875 1681.7656,279.4844 L1681.7656,278.3906 C1681.7656,276.6094 1683.0156,275.2969 1684.75,275.2969 C1685.3281,275.2969 1685.9375,275.4531 1686.4063,275.7031 C1686.8906,275.9844 1687.0625,276.2031 1687.1563,276.6094 C1687.2188,277.0156 1687.25,277.1406 1687.3906,277.2656 C1687.5313,277.4063 1687.7656,277.5156 1687.9844,277.5156 C1688.25,277.5156 1688.5156,277.375 1688.6875,277.1563 C1688.7969,277 1688.8281,276.8125 1688.8281,276.3906 L1688.8281,274.9688 C1688.8281,274.5313 1688.8125,274.4063 1688.7188,274.25 C1688.5625,273.9844 1688.2813,273.8438 1687.9844,273.8438 C1687.6875,273.8438 1687.4844,273.9375 1687.2656,274.25 L1687.0938,274.1719 Z " fill="#000000"/><text fill="#000000" font-family="sans-serif" font-size="14" lengthAdjust="spacing" textLength="147" x="1705.25" y="283.3467">TableViewController</text><line style="stroke:#181818;stroke-width:0.5;" x1="1477" x2="2048" y1="294.5" y2="294.5"/><polygon fill="none" points="1487,304.1484,1483,310.1484,1491,310.1484" style="stroke:#1963A0;stroke-width:1.0;"/><text fill="#000000" font-family="sans-serif" font-size="14" lengthAdjust="spacing" textLength="547" x="1496" y="311.4951">fetchedResultsController : NSFetchedResultsController&lt;CoreDataSession&gt;!</text><line style="stroke:#181818;stroke-width:0.5;" x1="1477" x2="2048" y1="318.7969" y2="318.7969"/><polygon fill="#4177AF" points="1487,328.4453,1483,334.4453,1491,334.4453" style="stroke:#1963A0;stroke-width:1.0;"/><text fill="#000000" font-family="sans-serif" font-size="14" lengthAdjust="spacing" textLength="255" x="1496" y="335.792">initializeFetchedResultsController()</text><polygon fill="#4177AF" points="1487,344.7422,1483,350.7422,1491,350.7422" style="stroke:#1963A0;stroke-width:1.0;"/><text fill="#000000" font-family="sans-serif" font-size="14" lengthAdjust="spacing" textLength="100" x="1496" y="352.0889">viewDidLoad()</text><polygon fill="#4177AF" points="1487,361.0391,1483,367.0391,1491,367.0391" style="stroke:#1963A0;stroke-width:1.0;"/><text fill="#000000" font-family="sans-serif" font-size="14" lengthAdjust="spacing" textLength="163" x="1496" y="368.3857">numberOfSections(in:)</text><path d="M1667.5,358.8542 L1664,364.6875 L1666.3333,364.6875 L1666.3333,368.1875 L1669.8333,362.3542 L1667.5,362.3542 L1667.5,358.8542 " fill="#000000" style="stroke:;stroke-width:0.0;stroke-dasharray:;"/><polygon fill="#4177AF" points="1487,377.3359,1483,383.3359,1491,383.3359" style="stroke:#1963A0;stroke-width:1.0;"/><text fill="#000000" font-family="sans-serif" font-size="14" lengthAdjust="spacing" textLength="277" x="1496" y="384.6826">tableView(_:numberOfRowsInSection:)</text><path d="M1781.5,375.151 L1778,380.9844 L1780.3333,380.9844 L1780.3333,384.4844 L1783.8333,378.651 L1781.5,378.651 L1781.5,375.151 " fill="#000000" style="stroke:;stroke-width:0.0;stroke-dasharray:;"/><polygon fill="#4177AF" points="1487,393.6328,1483,399.6328,1491,399.6328" style="stroke:#1963A0;stroke-width:1.0;"/><text fill="#000000" font-family="sans-serif" font-size="14" lengthAdjust="spacing" textLength="121" x="1496" y="400.9795">deleteAllData(_:)</text><path d="M1625.5,391.4479 L1622,397.2812 L1624.3333,397.2812 L1624.3333,400.7812 L1627.8333,394.9479 L1625.5,394.9479 L1625.5,391.4479 " fill="#000000" style="stroke:;stroke-width:0.0;stroke-dasharray:;"/><rect fill="#F24D5C" height="6" style="stroke:#C82930;stroke-width:1.0;" width="6" x="1484" y="410.9297"/><text fill="#000000" font-family="sans-serif" font-size="14" lengthAdjust="spacing" textLength="136" x="1496" y="417.2764">deleteAllSessions()</text><path d="M1640.5,407.7448 L1637,413.5781 L1639.3333,413.5781 L1639.3333,417.0781 L1642.8333,411.2448 L1640.5,411.2448 L1640.5,407.7448 " fill="#000000" style="stroke:;stroke-width:0.0;stroke-dasharray:;"/><polygon fill="#4177AF" points="1487,426.2266,1483,432.2266,1491,432.2266" style="stroke:#1963A0;stroke-width:1.0;"/><text fill="#000000" font-family="sans-serif" font-size="14" lengthAdjust="spacing" textLength="194" x="1496" y="433.5732">tableView(_:cellForRowAt:)</text><path d="M1698.5,424.0417 L1695,429.875 L1697.3333,429.875 L1697.3333,433.375 L1700.8333,427.5417 L1698.5,427.5417 L1698.5,424.0417 " fill="#000000" style="stroke:;stroke-width:0.0;stroke-dasharray:;"/><polygon fill="#4177AF" points="1487,442.5234,1483,448.5234,1491,448.5234" style="stroke:#1963A0;stroke-width:1.0;"/><text fill="#000000" font-family="sans-serif" font-size="14" lengthAdjust="spacing" textLength="228" x="1496" y="449.8701">tableView(_:commit:forRowAt:)</text><path d="M1732.5,440.3385 L1729,446.1719 L1731.3333,446.1719 L1731.3333,449.6719 L1734.8333,443.8385 L1732.5,443.8385 L1732.5,440.3385 " fill="#000000" style="stroke:;stroke-width:0.0;stroke-dasharray:;"/><polygon fill="#4177AF" points="1487,458.8203,1483,464.8203,1491,464.8203" style="stroke:#1963A0;stroke-width:1.0;"/><text fill="#000000" font-family="sans-serif" font-size="14" lengthAdjust="spacing" textLength="148" x="1496" y="466.167">prepare(for:sender:)</text><path d="M1652.5,456.6354 L1649,462.4687 L1651.3333,462.4687 L1651.3333,465.9687 L1654.8333,460.1354 L1652.5,460.1354 L1652.5,456.6354 " fill="#000000" style="stroke:;stroke-width:0.0;stroke-dasharray:;"/><polygon fill="#4177AF" points="1487,475.1172,1483,481.1172,1491,481.1172" style="stroke:#1963A0;stroke-width:1.0;"/><text fill="#000000" font-family="sans-serif" font-size="14" lengthAdjust="spacing" textLength="233" x="1496" y="482.4639">controllerWillChangeContent(_:)</text><path d="M1737.5,472.9323 L1734,478.7656 L1736.3333,478.7656 L1736.3333,482.2656 L1739.8333,476.4323 L1737.5,476.4323 L1737.5,472.9323 " fill="#000000" style="stroke:;stroke-width:0.0;stroke-dasharray:;"/><polygon fill="#4177AF" points="1487,491.4141,1483,497.4141,1491,497.4141" style="stroke:#1963A0;stroke-width:1.0;"/><text fill="#000000" font-family="sans-serif" font-size="14" lengthAdjust="spacing" textLength="314" x="1496" y="498.7607">controller(_:didChange:atSectionIndex:for:)</text><path d="M1818.5,489.2292 L1815,495.0625 L1817.3333,495.0625 L1817.3333,498.5625 L1820.8333,492.7292 L1818.5,492.7292 L1818.5,489.2292 " fill="#000000" style="stroke:;stroke-width:0.0;stroke-dasharray:;"/><polygon fill="#4177AF" points="1487,507.7109,1483,513.7109,1491,513.7109" style="stroke:#1963A0;stroke-width:1.0;"/><text fill="#000000" font-family="sans-serif" font-size="14" lengthAdjust="spacing" textLength="326" x="1496" y="515.0576">controller(_:didChange:at:for:newIndexPath:)</text><path d="M1830.5,505.526 L1827,511.3594 L1829.3333,511.3594 L1829.3333,514.8594 L1832.8333,509.026 L1830.5,509.026 L1830.5,505.526 " fill="#000000" style="stroke:;stroke-width:0.0;stroke-dasharray:;"/><polygon fill="#4177AF" points="1487,524.0078,1483,530.0078,1491,530.0078" style="stroke:#1963A0;stroke-width:1.0;"/><text fill="#000000" font-family="sans-serif" font-size="14" lengthAdjust="spacing" textLength="231" x="1496" y="531.3545">controllerDidChangeContent(_:)</text><path d="M1735.5,521.8229 L1732,527.6563 L1734.3333,527.6563 L1734.3333,531.1563 L1737.8333,525.3229 L1735.5,525.3229 L1735.5,521.8229 " fill="#000000" style="stroke:;stroke-width:0.0;stroke-dasharray:;"/></g><!--class ReplayViewController--><g id="elem_ReplayViewController"><rect codeLine="45" fill="#F1F1F1" height="357.6406" id="ReplayViewController" rx="2.5" ry="2.5" style="stroke:#181818;stroke-width:0.5;" width="325" x="9" y="746"/><ellipse cx="89.25" cy="762" fill="#8FBC8F" rx="11" ry="11" style="stroke:#181818;stroke-width:1.0;"/><path d="M91.5938,757.6719 C90.6563,757.2344 90.0625,757.0938 89.1875,757.0938 C86.5625,757.0938 84.5625,759.1719 84.5625,761.8906 L84.5625,763.0156 C84.5625,765.5938 86.6719,767.4844 89.5625,767.4844 C90.7813,767.4844 91.9375,767.1875 92.6875,766.6406 C93.2656,766.2344 93.5938,765.7813 93.5938,765.3906 C93.5938,764.9375 93.2031,764.5469 92.7344,764.5469 C92.5156,764.5469 92.3125,764.625 92.125,764.8125 C91.6719,765.2969 91.6719,765.2969 91.4844,765.3906 C91.0625,765.6563 90.375,765.7813 89.6094,765.7813 C87.5625,765.7813 86.2656,764.6875 86.2656,762.9844 L86.2656,761.8906 C86.2656,760.1094 87.5156,758.7969 89.25,758.7969 C89.8281,758.7969 90.4375,758.9531 90.9063,759.2031 C91.3906,759.4844 91.5625,759.7031 91.6563,760.1094 C91.7188,760.5156 91.75,760.6406 91.8906,760.7656 C92.0313,760.9063 92.2656,761.0156 92.4844,761.0156 C92.75,761.0156 93.0156,760.875 93.1875,760.6563 C93.2969,760.5 93.3281,760.3125 93.3281,759.8906 L93.3281,758.4688 C93.3281,758.0313 93.3125,757.9063 93.2188,757.75 C93.0625,757.4844 92.7813,757.3438 92.4844,757.3438 C92.1875,757.3438 91.9844,757.4375 91.7656,757.75 L91.5938,757.6719 Z " fill="#000000"/><text fill="#000000" font-family="sans-serif" font-size="14" lengthAdjust="spacing" textLength="156" x="109.75" y="766.8467">ReplayViewController</text><line style="stroke:#181818;stroke-width:0.5;" x1="10" x2="333" y1="778" y2="778"/><polygon fill="none" points="20,787.6484,16,793.6484,24,793.6484" style="stroke:#1963A0;stroke-width:1.0;"/><text fill="#000000" font-family="sans-serif" font-size="14" lengthAdjust="spacing" textLength="295" x="29" y="794.9951">botColorReplay : GameSession.DiscColor</text><polygon fill="none" points="20,803.9453,16,809.9453,24,809.9453" style="stroke:#1963A0;stroke-width:1.0;"/><text fill="#000000" font-family="sans-serif" font-size="14" lengthAdjust="spacing" textLength="299" x="29" y="811.292">userColorReplay : GameSession.DiscColor</text><polygon fill="none" points="20,820.2422,16,826.2422,24,826.2422" style="stroke:#1963A0;stroke-width:1.0;"/><text fill="#000000" font-family="sans-serif" font-size="14" lengthAdjust="spacing" textLength="118" x="29" y="827.5889">isBotFirstReplay</text><polygon fill="none" points="20,836.5391,16,842.5391,24,842.5391" style="stroke:#1963A0;stroke-width:1.0;"/><text fill="#000000" font-family="sans-serif" font-size="14" lengthAdjust="spacing" textLength="44" x="29" y="843.8857">layout</text><polygon fill="none" points="20,852.8359,16,858.8359,24,858.8359" style="stroke:#1963A0;stroke-width:1.0;"/><text fill="#000000" font-family="sans-serif" font-size="14" lengthAdjust="spacing" textLength="66" x="29" y="860.1826">positions</text><rect fill="none" height="6" style="stroke:#C82930;stroke-width:1.0;" width="6" x="17" y="870.1328"/><text fill="#000000" font-family="sans-serif" font-size="14" lengthAdjust="spacing" textLength="140" x="29" y="876.4795">discBehaviorReplay</text><polygon fill="none" points="20,885.4297,16,891.4297,24,891.4297" style="stroke:#1963A0;stroke-width:1.0;"/><text fill="#000000" font-family="sans-serif" font-size="14" lengthAdjust="spacing" textLength="275" x="29" y="892.7764">winningColor : GameSession.DiscColor</text><polygon fill="none" points="20,901.7266,16,907.7266,24,907.7266" style="stroke:#1963A0;stroke-width:1.0;"/><text fill="#000000" font-family="sans-serif" font-size="14" lengthAdjust="spacing" textLength="105" x="29" y="909.0732">winner : String</text><polygon fill="none" points="20,918.0234,16,924.0234,24,924.0234" style="stroke:#1963A0;stroke-width:1.0;"/><text fill="#000000" font-family="sans-serif" font-size="14" lengthAdjust="spacing" textLength="258" x="29" y="925.3701">selectedSession : CoreDataSession?</text><polygon fill="none" points="20,934.3203,16,940.3203,24,940.3203" style="stroke:#1963A0;stroke-width:1.0;"/><text fill="#000000" font-family="sans-serif" font-size="14" lengthAdjust="spacing" textLength="291" x="29" y="941.667">gameViewReplay : DiscsBezierPathView!</text><polygon fill="none" points="20,950.6172,16,956.6172,24,956.6172" style="stroke:#1963A0;stroke-width:1.0;"/><text fill="#000000" font-family="sans-serif" font-size="14" lengthAdjust="spacing" textLength="219" x="29" y="957.9639">boardViewReplay : BoardView!</text><polygon fill="none" points="20,966.9141,16,972.9141,24,972.9141" style="stroke:#1963A0;stroke-width:1.0;"/><text fill="#000000" font-family="sans-serif" font-size="14" lengthAdjust="spacing" textLength="111" x="29" y="974.2607">result : UILabel!</text><polygon fill="none" points="20,983.2109,16,989.2109,24,989.2109" style="stroke:#1963A0;stroke-width:1.0;"/><text fill="#000000" font-family="sans-serif" font-size="14" lengthAdjust="spacing" textLength="176" x="29" y="990.5576">replayButton : UIButton!</text><rect fill="none" height="6" style="stroke:#C82930;stroke-width:1.0;" width="6" x="17" y="1000.5078"/><text fill="#000000" font-family="sans-serif" font-size="14" lengthAdjust="spacing" textLength="274" x="29" y="1006.8545">replayAnimator : UIDynamicAnimator?</text><line style="stroke:#181818;stroke-width:0.5;" x1="10" x2="333" y1="1014.1563" y2="1014.1563"/><polygon fill="#4177AF" points="20,1023.8047,16,1029.8047,24,1029.8047" style="stroke:#1963A0;stroke-width:1.0;"/><text fill="#000000" font-family="sans-serif" font-size="14" lengthAdjust="spacing" textLength="100" x="29" y="1031.1514">viewDidLoad()</text><polygon fill="#4177AF" points="20,1040.1016,16,1046.1016,24,1046.1016" style="stroke:#1963A0;stroke-width:1.0;"/><text fill="#000000" font-family="sans-serif" font-size="14" lengthAdjust="spacing" textLength="157" x="29" y="1047.4482">replayAgainButton(_:)</text><polygon fill="#4177AF" points="20,1056.3984,16,1062.3984,24,1062.3984" style="stroke:#1963A0;stroke-width:1.0;"/><text fill="#000000" font-family="sans-serif" font-size="14" lengthAdjust="spacing" textLength="101" x="29" y="1063.7451">changeLabel()</text><polygon fill="#4177AF" points="20,1072.6953,16,1078.6953,24,1078.6953" style="stroke:#1963A0;stroke-width:1.0;"/><text fill="#000000" font-family="sans-serif" font-size="14" lengthAdjust="spacing" textLength="134" x="29" y="1080.042">replayDiscs(using:)</text><polygon fill="#4177AF" points="20,1088.9922,16,1094.9922,24,1094.9922" style="stroke:#1963A0;stroke-width:1.0;"/><text fill="#000000" font-family="sans-serif" font-size="14" lengthAdjust="spacing" textLength="286" x="29" y="1096.3389">dropDisc(center:color:index:isWinning:)</text></g><!--class ReplayViewController.EllipseViewReplay--><g id="elem_ReplayViewController.EllipseViewReplay"><rect codeLine="66" fill="#F1F1F1" height="145.7813" id="ReplayViewController.EllipseViewReplay" rx="2.5" ry="2.5" style="stroke:#181818;stroke-width:0.5;" width="442" x="834.5" y="1165"/><ellipse cx="986.25" cy="1181" fill="#8FBC8F" rx="11" ry="11" style="stroke:#181818;stroke-width:1.0;"/><path d="M988.5938,1176.6719 C987.6563,1176.2344 987.0625,1176.0938 986.1875,1176.0938 C983.5625,1176.0938 981.5625,1178.1719 981.5625,1180.8906 L981.5625,1182.0156 C981.5625,1184.5938 983.6719,1186.4844 986.5625,1186.4844 C987.7813,1186.4844 988.9375,1186.1875 989.6875,1185.6406 C990.2656,1185.2344 990.5938,1184.7813 990.5938,1184.3906 C990.5938,1183.9375 990.2031,1183.5469 989.7344,1183.5469 C989.5156,1183.5469 989.3125,1183.625 989.125,1183.8125 C988.6719,1184.2969 988.6719,1184.2969 988.4844,1184.3906 C988.0625,1184.6563 987.375,1184.7813 986.6094,1184.7813 C984.5625,1184.7813 983.2656,1183.6875 983.2656,1181.9844 L983.2656,1180.8906 C983.2656,1179.1094 984.5156,1177.7969 986.25,1177.7969 C986.8281,1177.7969 987.4375,1177.9531 987.9063,1178.2031 C988.3906,1178.4844 988.5625,1178.7031 988.6563,1179.1094 C988.7188,1179.5156 988.75,1179.6406 988.8906,1179.7656 C989.0313,1179.9063 989.2656,1180.0156 989.4844,1180.0156 C989.75,1180.0156 990.0156,1179.875 990.1875,1179.6563 C990.2969,1179.5 990.3281,1179.3125 990.3281,1178.8906 L990.3281,1177.4688 C990.3281,1177.0313 990.3125,1176.9063 990.2188,1176.75 C990.0625,1176.4844 989.7813,1176.3438 989.4844,1176.3438 C989.1875,1176.3438 988.9844,1176.4375 988.7656,1176.75 L988.5938,1176.6719 Z " fill="#000000"/><text fill="#000000" font-family="sans-serif" font-size="14" lengthAdjust="spacing" textLength="130" x="1006.75" y="1185.8467">EllipseViewReplay</text><line style="stroke:#181818;stroke-width:0.5;" x1="835.5" x2="1275.5" y1="1197" y2="1197"/><polygon fill="none" points="845.5,1206.6484,841.5,1212.6484,849.5,1212.6484" style="stroke:#1963A0;stroke-width:1.0;"/><text fill="#000000" font-family="sans-serif" font-size="14" lengthAdjust="spacing" textLength="165" x="854.5" y="1213.9951">numberLabel : UILabel!</text><polygon fill="none" points="845.5,1222.9453,841.5,1228.9453,849.5,1228.9453" style="stroke:#1963A0;stroke-width:1.0;"/><text fill="#000000" font-family="sans-serif" font-size="14" lengthAdjust="spacing" textLength="114" x="854.5" y="1230.292">isWinning : Bool</text><polygon fill="none" points="845.5,1239.2422,841.5,1245.2422,849.5,1245.2422" style="stroke:#1963A0;stroke-width:1.0;"/><text fill="#000000" font-family="sans-serif" font-size="14" lengthAdjust="spacing" textLength="416" x="854.5" y="1246.5889">collisionBoundsType : UIDynamicItemCollisionBoundsType</text><line style="stroke:#181818;stroke-width:0.5;" x1="835.5" x2="1275.5" y1="1253.8906" y2="1253.8906"/><polygon fill="#4177AF" points="845.5,1263.5391,841.5,1269.5391,849.5,1269.5391" style="stroke:#1963A0;stroke-width:1.0;"/><text fill="#000000" font-family="sans-serif" font-size="14" lengthAdjust="spacing" textLength="106" x="854.5" y="1270.8857">init(frame:_:_:)</text><polygon fill="#4177AF" points="845.5,1279.8359,841.5,1285.8359,849.5,1285.8359" style="stroke:#1963A0;stroke-width:1.0;"/><text fill="#000000" font-family="sans-serif" font-size="14" lengthAdjust="spacing" textLength="80" x="854.5" y="1287.1826">init(coder:)</text><polygon fill="#4177AF" points="845.5,1296.1328,841.5,1302.1328,849.5,1302.1328" style="stroke:#1963A0;stroke-width:1.0;"/><text fill="#000000" font-family="sans-serif" font-size="14" lengthAdjust="spacing" textLength="176" x="854.5" y="1303.4795">setNumber(_:isWinning:)</text></g><!--class ViewController--><g id="elem_ViewController"><rect codeLine="74" fill="#F1F1F1" height="536.9063" id="ViewController" rx="2.5" ry="2.5" style="stroke:#181818;stroke-width:0.5;" width="325" x="140" y="132"/><ellipse cx="244.75" cy="148" fill="#8FBC8F" rx="11" ry="11" style="stroke:#181818;stroke-width:1.0;"/><path d="M247.0938,143.6719 C246.1563,143.2344 245.5625,143.0938 244.6875,143.0938 C242.0625,143.0938 240.0625,145.1719 240.0625,147.8906 L240.0625,149.0156 C240.0625,151.5938 242.1719,153.4844 245.0625,153.4844 C246.2813,153.4844 247.4375,153.1875 248.1875,152.6406 C248.7656,152.2344 249.0938,151.7813 249.0938,151.3906 C249.0938,150.9375 248.7031,150.5469 248.2344,150.5469 C248.0156,150.5469 247.8125,150.625 247.625,150.8125 C247.1719,151.2969 247.1719,151.2969 246.9844,151.3906 C246.5625,151.6563 245.875,151.7813 245.1094,151.7813 C243.0625,151.7813 241.7656,150.6875 241.7656,148.9844 L241.7656,147.8906 C241.7656,146.1094 243.0156,144.7969 244.75,144.7969 C245.3281,144.7969 245.9375,144.9531 246.4063,145.2031 C246.8906,145.4844 247.0625,145.7031 247.1563,146.1094 C247.2188,146.5156 247.25,146.6406 247.3906,146.7656 C247.5313,146.9063 247.7656,147.0156 247.9844,147.0156 C248.25,147.0156 248.5156,146.875 248.6875,146.6563 C248.7969,146.5 248.8281,146.3125 248.8281,145.8906 L248.8281,144.4688 C248.8281,144.0313 248.8125,143.9063 248.7188,143.75 C248.5625,143.4844 248.2813,143.3438 247.9844,143.3438 C247.6875,143.3438 247.4844,143.4375 247.2656,143.75 L247.0938,143.6719 Z " fill="#000000"/><text fill="#000000" font-family="sans-serif" font-size="14" lengthAdjust="spacing" textLength="107" x="265.25" y="152.8467">ViewController</text><line style="stroke:#181818;stroke-width:0.5;" x1="141" x2="464" y1="164" y2="164"/><polygon fill="none" points="151,173.6484,147,179.6484,155,179.6484" style="stroke:#1963A0;stroke-width:1.0;"/><text fill="#000000" font-family="sans-serif" font-size="14" lengthAdjust="spacing" textLength="149" x="160" y="180.9951">gameLabel : UILabel!</text><polygon fill="none" points="151,189.9453,147,195.9453,155,195.9453" style="stroke:#1963A0;stroke-width:1.0;"/><text fill="#000000" font-family="sans-serif" font-size="14" lengthAdjust="spacing" textLength="267" x="160" y="197.292">tapOutlet : UITapGestureRecognizer!</text><polygon fill="none" points="151,206.2422,147,212.2422,155,212.2422" style="stroke:#1963A0;stroke-width:1.0;"/><text fill="#000000" font-family="sans-serif" font-size="14" lengthAdjust="spacing" textLength="299" x="160" y="213.5889">swipeOutlet : UISwipeGestureRecognizer!</text><polygon fill="none" points="151,222.5391,147,228.5391,155,228.5391" style="stroke:#1963A0;stroke-width:1.0;"/><text fill="#000000" font-family="sans-serif" font-size="14" lengthAdjust="spacing" textLength="170" x="160" y="229.8857">boardView : BoardView!</text><polygon fill="none" points="151,238.8359,147,244.8359,155,244.8359" style="stroke:#1963A0;stroke-width:1.0;"/><text fill="#000000" font-family="sans-serif" font-size="14" lengthAdjust="spacing" textLength="242" x="160" y="246.1826">gameView : DiscsBezierPathView!</text><polygon fill="none" points="151,255.1328,147,261.1328,155,261.1328" style="stroke:#1963A0;stroke-width:1.0;"/><text fill="#000000" font-family="sans-serif" font-size="14" lengthAdjust="spacing" textLength="202" x="160" y="262.4795">newGameButton : UIButton!</text><rect fill="none" height="6" style="stroke:#C82930;stroke-width:1.0;" width="6" x="148" y="272.4297"/><text fill="#000000" font-family="sans-serif" font-size="14" lengthAdjust="spacing" textLength="246" x="160" y="278.7764">botColor : GameSession.DiscColor</text><rect fill="none" height="6" style="stroke:#C82930;stroke-width:1.0;" width="6" x="148" y="288.7266"/><text fill="#000000" font-family="sans-serif" font-size="14" lengthAdjust="spacing" textLength="250" x="160" y="295.0732">userColor : GameSession.DiscColor</text><rect fill="none" height="6" style="stroke:#C82930;stroke-width:1.0;" width="6" x="148" y="305.0234"/><text fill="#000000" font-family="sans-serif" font-size="14" lengthAdjust="spacing" textLength="69" x="160" y="311.3701">isBotFirst</text><rect fill="none" height="6" style="stroke:#C82930;stroke-width:1.0;" width="6" x="148" y="321.3203"/><text fill="#000000" font-family="sans-serif" font-size="14" lengthAdjust="spacing" textLength="273" x="160" y="327.667">currentColor : GameSession.DiscColor</text><rect fill="none" height="6" style="stroke:#C82930;stroke-width:1.0;" width="6" x="148" y="337.6172"/><text fill="#000000" font-family="sans-serif" font-size="14" lengthAdjust="spacing" textLength="94" x="160" y="343.9639">gameSession</text><rect fill="none" height="6" style="stroke:#C82930;stroke-width:1.0;" width="6" x="148" y="353.9141"/><text fill="#000000" font-family="sans-serif" font-size="14" lengthAdjust="spacing" textLength="91" x="160" y="360.2607">discBehavior</text><rect fill="none" height="6" style="stroke:#C82930;stroke-width:1.0;" width="6" x="148" y="370.2109"/><text fill="#000000" font-family="sans-serif" font-size="14" lengthAdjust="spacing" textLength="227" x="160" y="376.5576">animator : UIDynamicAnimator?</text><line style="stroke:#181818;stroke-width:0.5;" x1="141" x2="464" y1="383.8594" y2="383.8594"/><polygon fill="#4177AF" points="151,393.5078,147,399.5078,155,399.5078" style="stroke:#1963A0;stroke-width:1.0;"/><text fill="#000000" font-family="sans-serif" font-size="14" lengthAdjust="spacing" textLength="100" x="160" y="400.8545">viewDidLoad()</text><polygon fill="#4177AF" points="151,409.8047,147,415.8047,155,415.8047" style="stroke:#1963A0;stroke-width:1.0;"/><text fill="#000000" font-family="sans-serif" font-size="14" lengthAdjust="spacing" textLength="143" x="160" y="417.1514">newGameButton(_:)</text><rect fill="#F24D5C" height="6" style="stroke:#C82930;stroke-width:1.0;" width="6" x="148" y="427.1016"/><text fill="#000000" font-family="sans-serif" font-size="14" lengthAdjust="spacing" textLength="135" x="160" y="433.4482">newGameSession()</text><polygon fill="#4177AF" points="151,442.3984,147,448.3984,155,448.3984" style="stroke:#1963A0;stroke-width:1.0;"/><text fill="#000000" font-family="sans-serif" font-size="14" lengthAdjust="spacing" textLength="180" x="160" y="449.7451">showTurnAndColorAlert()</text><polygon fill="#4177AF" points="151,458.6953,147,464.6953,155,464.6953" style="stroke:#1963A0;stroke-width:1.0;"/><text fill="#000000" font-family="sans-serif" font-size="14" lengthAdjust="spacing" textLength="228" x="160" y="466.042">stateChanged(_:state:textLog:)</text><path d="M396.5,456.5104 L393,462.3438 L395.3333,462.3438 L395.3333,465.8438 L398.8333,460.0104 L396.5,460.0104 L396.5,456.5104 " fill="#000000" style="stroke:;stroke-width:0.0;stroke-dasharray:;"/><polygon fill="#4177AF" points="151,474.9922,147,480.9922,155,480.9922" style="stroke:#1963A0;stroke-width:1.0;"/><text fill="#000000" font-family="sans-serif" font-size="14" lengthAdjust="spacing" textLength="277" x="160" y="482.3389">didDropDisc(_:color:at:index:textLog:)</text><path d="M445.5,472.8073 L442,478.6406 L444.3333,478.6406 L444.3333,482.1406 L447.8333,476.3073 L445.5,476.3073 L445.5,472.8073 " fill="#000000" style="stroke:;stroke-width:0.0;stroke-dasharray:;"/><polygon fill="#4177AF" points="151,491.2891,147,497.2891,155,497.2891" style="stroke:#1963A0;stroke-width:1.0;"/><text fill="#000000" font-family="sans-serif" font-size="14" lengthAdjust="spacing" textLength="226" x="160" y="498.6357">didEnd(_:color:winningActions:)</text><path d="M394.5,489.1042 L391,494.9375 L393.3333,494.9375 L393.3333,498.4375 L396.8333,492.6042 L394.5,492.6042 L394.5,489.1042 " fill="#000000" style="stroke:;stroke-width:0.0;stroke-dasharray:;"/><polygon fill="#4177AF" points="151,507.5859,147,513.5859,155,513.5859" style="stroke:#1963A0;stroke-width:1.0;"/><text fill="#000000" font-family="sans-serif" font-size="14" lengthAdjust="spacing" textLength="47" x="160" y="514.9326">tap(_:)</text><path d="M215.5,505.401 L212,511.2344 L214.3333,511.2344 L214.3333,514.7344 L217.8333,508.901 L215.5,508.901 L215.5,505.401 " fill="#000000" style="stroke:;stroke-width:0.0;stroke-dasharray:;"/><polygon fill="#4177AF" points="151,523.8828,147,529.8828,155,529.8828" style="stroke:#1963A0;stroke-width:1.0;"/><text fill="#000000" font-family="sans-serif" font-size="14" lengthAdjust="spacing" textLength="63" x="160" y="531.2295">swipe(_:)</text><path d="M231.5,521.6979 L228,527.5313 L230.3333,527.5313 L230.3333,531.0313 L233.8333,525.1979 L231.5,525.1979 L231.5,521.6979 " fill="#000000" style="stroke:;stroke-width:0.0;stroke-dasharray:;"/><polygon fill="#4177AF" points="151,540.1797,147,546.1797,155,546.1797" style="stroke:#1963A0;stroke-width:1.0;"/><text fill="#000000" font-family="sans-serif" font-size="14" lengthAdjust="spacing" textLength="197" x="160" y="547.5264">dropLocation(index:board:)</text><path d="M365.5,537.9948 L362,543.8281 L364.3333,543.8281 L364.3333,547.3281 L367.8333,541.4948 L365.5,541.4948 L365.5,537.9948 " fill="#000000" style="stroke:;stroke-width:0.0;stroke-dasharray:;"/><polygon fill="#4177AF" points="151,556.4766,147,562.4766,155,562.4766" style="stroke:#1963A0;stroke-width:1.0;"/><text fill="#000000" font-family="sans-serif" font-size="14" lengthAdjust="spacing" textLength="162" x="160" y="563.8232">determineColor(desc:)</text><path d="M330.5,554.2917 L327,560.125 L329.3333,560.125 L329.3333,563.625 L332.8333,557.7917 L330.5,557.7917 L330.5,554.2917 " fill="#000000" style="stroke:;stroke-width:0.0;stroke-dasharray:;"/><polygon fill="#4177AF" points="151,572.7734,147,578.7734,155,578.7734" style="stroke:#1963A0;stroke-width:1.0;"/><text fill="#000000" font-family="sans-serif" font-size="14" lengthAdjust="spacing" textLength="168" x="160" y="580.1201">dropDisc(center:color:)</text><path d="M336.5,570.5885 L333,576.4219 L335.3333,576.4219 L335.3333,579.9219 L338.8333,574.0885 L336.5,574.0885 L336.5,570.5885 " fill="#000000" style="stroke:;stroke-width:0.0;stroke-dasharray:;"/><rect fill="#F24D5C" height="6" style="stroke:#C82930;stroke-width:1.0;" width="6" x="148" y="590.0703"/><text fill="#000000" font-family="sans-serif" font-size="14" lengthAdjust="spacing" textLength="144" x="160" y="596.417">findClosestHole(to:)</text><path d="M312.5,586.8854 L309,592.7188 L311.3333,592.7188 L311.3333,596.2188 L314.8333,590.3854 L312.5,590.3854 L312.5,586.8854 " fill="#000000" style="stroke:;stroke-width:0.0;stroke-dasharray:;"/><polygon fill="#4177AF" points="151,605.3672,147,611.3672,155,611.3672" style="stroke:#1963A0;stroke-width:1.0;"/><text fill="#000000" font-family="sans-serif" font-size="14" lengthAdjust="spacing" textLength="67" x="160" y="612.7139">replay(_:)</text><path d="M235.5,603.1823 L232,609.0156 L234.3333,609.0156 L234.3333,612.5156 L237.8333,606.6823 L235.5,606.6823 L235.5,603.1823 " fill="#000000" style="stroke:;stroke-width:0.0;stroke-dasharray:;"/><polygon fill="#4177AF" points="151,621.6641,147,627.6641,155,627.6641" style="stroke:#1963A0;stroke-width:1.0;"/><text fill="#000000" font-family="sans-serif" font-size="14" lengthAdjust="spacing" textLength="82" x="160" y="629.0107">clearDiscs()</text><path d="M250.5,619.4792 L247,625.3125 L249.3333,625.3125 L249.3333,628.8125 L252.8333,622.9792 L250.5,622.9792 L250.5,619.4792 " fill="#000000" style="stroke:;stroke-width:0.0;stroke-dasharray:;"/><polygon fill="#4177AF" points="151,637.9609,147,643.9609,155,643.9609" style="stroke:#1963A0;stroke-width:1.0;"/><text fill="#000000" font-family="sans-serif" font-size="14" lengthAdjust="spacing" textLength="134" x="160" y="645.3076">replayDiscs(using:)</text><path d="M302.5,635.776 L299,641.6094 L301.3333,641.6094 L301.3333,645.1094 L304.8333,639.276 L302.5,639.276 L302.5,635.776 " fill="#000000" style="stroke:;stroke-width:0.0;stroke-dasharray:;"/><polygon fill="#4177AF" points="151,654.2578,147,660.2578,155,660.2578" style="stroke:#1963A0;stroke-width:1.0;"/><text fill="#000000" font-family="sans-serif" font-size="14" lengthAdjust="spacing" textLength="93" x="160" y="661.6045">newGame(_:)</text><path d="M261.5,652.0729 L258,657.9063 L260.3333,657.9063 L260.3333,661.4063 L263.8333,655.5729 L261.5,655.5729 L261.5,652.0729 " fill="#000000" style="stroke:;stroke-width:0.0;stroke-dasharray:;"/></g><!--class ViewController.EllipseView--><g id="elem_ViewController.EllipseView"><rect codeLine="106" fill="#F1F1F1" height="96.8906" id="ViewController.EllipseView" rx="2.5" ry="2.5" style="stroke:#181818;stroke-width:0.5;" width="442" x="369.5" y="876.5"/><ellipse cx="545.75" cy="892.5" fill="#8FBC8F" rx="11" ry="11" style="stroke:#181818;stroke-width:1.0;"/><path d="M548.0938,888.1719 C547.1563,887.7344 546.5625,887.5938 545.6875,887.5938 C543.0625,887.5938 541.0625,889.6719 541.0625,892.3906 L541.0625,893.5156 C541.0625,896.0938 543.1719,897.9844 546.0625,897.9844 C547.2813,897.9844 548.4375,897.6875 549.1875,897.1406 C549.7656,896.7344 550.0938,896.2813 550.0938,895.8906 C550.0938,895.4375 549.7031,895.0469 549.2344,895.0469 C549.0156,895.0469 548.8125,895.125 548.625,895.3125 C548.1719,895.7969 548.1719,895.7969 547.9844,895.8906 C547.5625,896.1563 546.875,896.2813 546.1094,896.2813 C544.0625,896.2813 542.7656,895.1875 542.7656,893.4844 L542.7656,892.3906 C542.7656,890.6094 544.0156,889.2969 545.75,889.2969 C546.3281,889.2969 546.9375,889.4531 547.4063,889.7031 C547.8906,889.9844 548.0625,890.2031 548.1563,890.6094 C548.2188,891.0156 548.25,891.1406 548.3906,891.2656 C548.5313,891.4063 548.7656,891.5156 548.9844,891.5156 C549.25,891.5156 549.5156,891.375 549.6875,891.1563 C549.7969,891 549.8281,890.8125 549.8281,890.3906 L549.8281,888.9688 C549.8281,888.5313 549.8125,888.4063 549.7188,888.25 C549.5625,887.9844 549.2813,887.8438 548.9844,887.8438 C548.6875,887.8438 548.4844,887.9375 548.2656,888.25 L548.0938,888.1719 Z " fill="#000000"/><text fill="#000000" font-family="sans-serif" font-size="14" lengthAdjust="spacing" textLength="81" x="566.25" y="897.3467">EllipseView</text><line style="stroke:#181818;stroke-width:0.5;" x1="370.5" x2="810.5" y1="908.5" y2="908.5"/><polygon fill="none" points="380.5,918.1484,376.5,924.1484,384.5,924.1484" style="stroke:#1963A0;stroke-width:1.0;"/><text fill="#000000" font-family="sans-serif" font-size="14" lengthAdjust="spacing" textLength="416" x="389.5" y="925.4951">collisionBoundsType : UIDynamicItemCollisionBoundsType</text><line style="stroke:#181818;stroke-width:0.5;" x1="370.5" x2="810.5" y1="932.7969" y2="932.7969"/><polygon fill="#4177AF" points="380.5,942.4453,376.5,948.4453,384.5,948.4453" style="stroke:#1963A0;stroke-width:1.0;"/><text fill="#000000" font-family="sans-serif" font-size="14" lengthAdjust="spacing" textLength="82" x="389.5" y="949.792">init(frame:)</text><polygon fill="#4177AF" points="380.5,958.7422,376.5,964.7422,384.5,964.7422" style="stroke:#1963A0;stroke-width:1.0;"/><text fill="#000000" font-family="sans-serif" font-size="14" lengthAdjust="spacing" textLength="80" x="389.5" y="966.0889">init(coder:)</text></g><!--class DiscsBezierPathView--><g id="elem_DiscsBezierPathView"><rect codeLine="111" fill="#F1F1F1" height="96.8906" id="DiscsBezierPathView" rx="2.5" ry="2.5" style="stroke:#181818;stroke-width:0.5;" width="182" x="846.5" y="876.5"/><ellipse cx="861.5" cy="892.5" fill="#8FBC8F" rx="11" ry="11" style="stroke:#181818;stroke-width:1.0;"/><path d="M863.8438,888.1719 C862.9063,887.7344 862.3125,887.5938 861.4375,887.5938 C858.8125,887.5938 856.8125,889.6719 856.8125,892.3906 L856.8125,893.5156 C856.8125,896.0938 858.9219,897.9844 861.8125,897.9844 C863.0313,897.9844 864.1875,897.6875 864.9375,897.1406 C865.5156,896.7344 865.8438,896.2813 865.8438,895.8906 C865.8438,895.4375 865.4531,895.0469 864.9844,895.0469 C864.7656,895.0469 864.5625,895.125 864.375,895.3125 C863.9219,895.7969 863.9219,895.7969 863.7344,895.8906 C863.3125,896.1563 862.625,896.2813 861.8594,896.2813 C859.8125,896.2813 858.5156,895.1875 858.5156,893.4844 L858.5156,892.3906 C858.5156,890.6094 859.7656,889.2969 861.5,889.2969 C862.0781,889.2969 862.6875,889.4531 863.1563,889.7031 C863.6406,889.9844 863.8125,890.2031 863.9063,890.6094 C863.9688,891.0156 864,891.1406 864.1406,891.2656 C864.2813,891.4063 864.5156,891.5156 864.7344,891.5156 C865,891.5156 865.2656,891.375 865.4375,891.1563 C865.5469,891 865.5781,890.8125 865.5781,890.3906 L865.5781,888.9688 C865.5781,888.5313 865.5625,888.4063 865.4688,888.25 C865.3125,887.9844 865.0313,887.8438 864.7344,887.8438 C864.4375,887.8438 864.2344,887.9375 864.0156,888.25 L863.8438,888.1719 Z " fill="#000000"/><text fill="#000000" font-family="sans-serif" font-size="14" lengthAdjust="spacing" textLength="150" x="875.5" y="897.3467">DiscsBezierPathView</text><line style="stroke:#181818;stroke-width:0.5;" x1="847.5" x2="1027.5" y1="908.5" y2="908.5"/><polygon fill="none" points="857.5,918.1484,853.5,924.1484,861.5,924.1484" style="stroke:#1963A0;stroke-width:1.0;"/><text fill="#000000" font-family="sans-serif" font-size="14" lengthAdjust="spacing" textLength="86" x="866.5" y="925.4951">bezierPaths</text><line style="stroke:#181818;stroke-width:0.5;" x1="847.5" x2="1027.5" y1="932.7969" y2="932.7969"/><polygon fill="#4177AF" points="857.5,942.4453,853.5,948.4453,861.5,948.4453" style="stroke:#1963A0;stroke-width:1.0;"/><text fill="#000000" font-family="sans-serif" font-size="14" lengthAdjust="spacing" textLength="132" x="866.5" y="949.792">setPath(_:named:)</text><polygon fill="#4177AF" points="857.5,958.7422,853.5,964.7422,861.5,964.7422" style="stroke:#1963A0;stroke-width:1.0;"/><text fill="#000000" font-family="sans-serif" font-size="14" lengthAdjust="spacing" textLength="56" x="866.5" y="966.0889">draw(_:)</text></g><!--class UIView--><g id="elem_UIView"><rect fill="#F1F1F1" height="48" id="UIView" rx="2.5" ry="2.5" style="stroke:#181818;stroke-width:0.5;" width="79" x="1018" y="376.5"/><ellipse cx="1033" cy="392.5" fill="#ADD1B2" rx="11" ry="11" style="stroke:#181818;stroke-width:1.0;"/><path d="M1035.3438,388.1719 C1034.4063,387.7344 1033.8125,387.5938 1032.9375,387.5938 C1030.3125,387.5938 1028.3125,389.6719 1028.3125,392.3906 L1028.3125,393.5156 C1028.3125,396.0938 1030.4219,397.9844 1033.3125,397.9844 C1034.5313,397.9844 1035.6875,397.6875 1036.4375,397.1406 C1037.0156,396.7344 1037.3438,396.2813 1037.3438,395.8906 C1037.3438,395.4375 1036.9531,395.0469 1036.4844,395.0469 C1036.2656,395.0469 1036.0625,395.125 1035.875,395.3125 C1035.4219,395.7969 1035.4219,395.7969 1035.2344,395.8906 C1034.8125,396.1563 1034.125,396.2813 1033.3594,396.2813 C1031.3125,396.2813 1030.0156,395.1875 1030.0156,393.4844 L1030.0156,392.3906 C1030.0156,390.6094 1031.2656,389.2969 1033,389.2969 C1033.5781,389.2969 1034.1875,389.4531 1034.6563,389.7031 C1035.1406,389.9844 1035.3125,390.2031 1035.4063,390.6094 C1035.4688,391.0156 1035.5,391.1406 1035.6406,391.2656 C1035.7813,391.4063 1036.0156,391.5156 1036.2344,391.5156 C1036.5,391.5156 1036.7656,391.375 1036.9375,391.1563 C1037.0469,391 1037.0781,390.8125 1037.0781,390.3906 L1037.0781,388.9688 C1037.0781,388.5313 1037.0625,388.4063 1036.9688,388.25 C1036.8125,387.9844 1036.5313,387.8438 1036.2344,387.8438 C1035.9375,387.8438 1035.7344,387.9375 1035.5156,388.25 L1035.3438,388.1719 Z " fill="#000000"/><text fill="#000000" font-family="sans-serif" font-size="14" lengthAdjust="spacing" textLength="47" x="1047" y="397.3467">UIView</text><line style="stroke:#181818;stroke-width:0.5;" x1="1019" x2="1096" y1="408.5" y2="408.5"/><line style="stroke:#181818;stroke-width:0.5;" x1="1019" x2="1096" y1="416.5" y2="416.5"/></g><!--class UIDynamicBehavior--><g id="elem_UIDynamicBehavior"><rect fill="#F1F1F1" height="48" id="UIDynamicBehavior" rx="2.5" ry="2.5" style="stroke:#181818;stroke-width:0.5;" width="170" x="1201.5" y="7"/><ellipse cx="1216.5" cy="23" fill="#ADD1B2" rx="11" ry="11" style="stroke:#181818;stroke-width:1.0;"/><path d="M1218.8438,18.6719 C1217.9063,18.2344 1217.3125,18.0938 1216.4375,18.0938 C1213.8125,18.0938 1211.8125,20.1719 1211.8125,22.8906 L1211.8125,24.0156 C1211.8125,26.5938 1213.9219,28.4844 1216.8125,28.4844 C1218.0313,28.4844 1219.1875,28.1875 1219.9375,27.6406 C1220.5156,27.2344 1220.8438,26.7813 1220.8438,26.3906 C1220.8438,25.9375 1220.4531,25.5469 1219.9844,25.5469 C1219.7656,25.5469 1219.5625,25.625 1219.375,25.8125 C1218.9219,26.2969 1218.9219,26.2969 1218.7344,26.3906 C1218.3125,26.6563 1217.625,26.7813 1216.8594,26.7813 C1214.8125,26.7813 1213.5156,25.6875 1213.5156,23.9844 L1213.5156,22.8906 C1213.5156,21.1094 1214.7656,19.7969 1216.5,19.7969 C1217.0781,19.7969 1217.6875,19.9531 1218.1563,20.2031 C1218.6406,20.4844 1218.8125,20.7031 1218.9063,21.1094 C1218.9688,21.5156 1219,21.6406 1219.1406,21.7656 C1219.2813,21.9063 1219.5156,22.0156 1219.7344,22.0156 C1220,22.0156 1220.2656,21.875 1220.4375,21.6563 C1220.5469,21.5 1220.5781,21.3125 1220.5781,20.8906 L1220.5781,19.4688 C1220.5781,19.0313 1220.5625,18.9063 1220.4688,18.75 C1220.3125,18.4844 1220.0313,18.3438 1219.7344,18.3438 C1219.4375,18.3438 1219.2344,18.4375 1219.0156,18.75 L1218.8438,18.6719 Z " fill="#000000"/><text fill="#000000" font-family="sans-serif" font-size="14" lengthAdjust="spacing" textLength="138" x="1230.5" y="27.8467">UIDynamicBehavior</text><line style="stroke:#181818;stroke-width:0.5;" x1="1202.5" x2="1370.5" y1="39" y2="39"/><line style="stroke:#181818;stroke-width:0.5;" x1="1202.5" x2="1370.5" y1="47" y2="47"/></g><!--class UITableViewController--><g id="elem_UITableViewController"><rect fill="#F1F1F1" height="48" id="UITableViewController" rx="2.5" ry="2.5" style="stroke:#181818;stroke-width:0.5;" width="192" x="1666.5" y="7"/><ellipse cx="1681.5" cy="23" fill="#ADD1B2" rx="11" ry="11" style="stroke:#181818;stroke-width:1.0;"/><path d="M1683.8438,18.6719 C1682.9063,18.2344 1682.3125,18.0938 1681.4375,18.0938 C1678.8125,18.0938 1676.8125,20.1719 1676.8125,22.8906 L1676.8125,24.0156 C1676.8125,26.5938 1678.9219,28.4844 1681.8125,28.4844 C1683.0313,28.4844 1684.1875,28.1875 1684.9375,27.6406 C1685.5156,27.2344 1685.8438,26.7813 1685.8438,26.3906 C1685.8438,25.9375 1685.4531,25.5469 1684.9844,25.5469 C1684.7656,25.5469 1684.5625,25.625 1684.375,25.8125 C1683.9219,26.2969 1683.9219,26.2969 1683.7344,26.3906 C1683.3125,26.6563 1682.625,26.7813 1681.8594,26.7813 C1679.8125,26.7813 1678.5156,25.6875 1678.5156,23.9844 L1678.5156,22.8906 C1678.5156,21.1094 1679.7656,19.7969 1681.5,19.7969 C1682.0781,19.7969 1682.6875,19.9531 1683.1563,20.2031 C1683.6406,20.4844 1683.8125,20.7031 1683.9063,21.1094 C1683.9688,21.5156 1684,21.6406 1684.1406,21.7656 C1684.2813,21.9063 1684.5156,22.0156 1684.7344,22.0156 C1685,22.0156 1685.2656,21.875 1685.4375,21.6563 C1685.5469,21.5 1685.5781,21.3125 1685.5781,20.8906 L1685.5781,19.4688 C1685.5781,19.0313 1685.5625,18.9063 1685.4688,18.75 C1685.3125,18.4844 1685.0313,18.3438 1684.7344,18.3438 C1684.4375,18.3438 1684.2344,18.4375 1684.0156,18.75 L1683.8438,18.6719 Z " fill="#000000"/><text fill="#000000" font-family="sans-serif" font-size="14" lengthAdjust="spacing" textLength="160" x="1695.5" y="27.8467">UITableViewController</text><line style="stroke:#181818;stroke-width:0.5;" x1="1667.5" x2="1857.5" y1="39" y2="39"/><line style="stroke:#181818;stroke-width:0.5;" x1="1667.5" x2="1857.5" y1="47" y2="47"/></g><!--class UIViewController--><g id="elem_UIViewController"><rect fill="#F1F1F1" height="48" id="UIViewController" rx="2.5" ry="2.5" style="stroke:#181818;stroke-width:0.5;" width="152" x="111.5" y="7"/><ellipse cx="126.5" cy="23" fill="#ADD1B2" rx="11" ry="11" style="stroke:#181818;stroke-width:1.0;"/><path d="M128.8438,18.6719 C127.9063,18.2344 127.3125,18.0938 126.4375,18.0938 C123.8125,18.0938 121.8125,20.1719 121.8125,22.8906 L121.8125,24.0156 C121.8125,26.5938 123.9219,28.4844 126.8125,28.4844 C128.0313,28.4844 129.1875,28.1875 129.9375,27.6406 C130.5156,27.2344 130.8438,26.7813 130.8438,26.3906 C130.8438,25.9375 130.4531,25.5469 129.9844,25.5469 C129.7656,25.5469 129.5625,25.625 129.375,25.8125 C128.9219,26.2969 128.9219,26.2969 128.7344,26.3906 C128.3125,26.6563 127.625,26.7813 126.8594,26.7813 C124.8125,26.7813 123.5156,25.6875 123.5156,23.9844 L123.5156,22.8906 C123.5156,21.1094 124.7656,19.7969 126.5,19.7969 C127.0781,19.7969 127.6875,19.9531 128.1563,20.2031 C128.6406,20.4844 128.8125,20.7031 128.9063,21.1094 C128.9688,21.5156 129,21.6406 129.1406,21.7656 C129.2813,21.9063 129.5156,22.0156 129.7344,22.0156 C130,22.0156 130.2656,21.875 130.4375,21.6563 C130.5469,21.5 130.5781,21.3125 130.5781,20.8906 L130.5781,19.4688 C130.5781,19.0313 130.5625,18.9063 130.4688,18.75 C130.3125,18.4844 130.0313,18.3438 129.7344,18.3438 C129.4375,18.3438 129.2344,18.4375 129.0156,18.75 L128.8438,18.6719 Z " fill="#000000"/><text fill="#000000" font-family="sans-serif" font-size="14" lengthAdjust="spacing" textLength="120" x="140.5" y="27.8467">UIViewController</text><line style="stroke:#181818;stroke-width:0.5;" x1="112.5" x2="262.5" y1="39" y2="39"/><line style="stroke:#181818;stroke-width:0.5;" x1="112.5" x2="262.5" y1="47" y2="47"/></g><!--class UIDynamicAnimatorDelegate--><g id="elem_UIDynamicAnimatorDelegate"><rect fill="#F1F1F1" height="48" id="UIDynamicAnimatorDelegate" rx="2.5" ry="2.5" style="stroke:#181818;stroke-width:0.5;" width="240" x="298.5" y="7"/><ellipse cx="313.5" cy="23" fill="#ADD1B2" rx="11" ry="11" style="stroke:#181818;stroke-width:1.0;"/><path d="M315.8438,18.6719 C314.9063,18.2344 314.3125,18.0938 313.4375,18.0938 C310.8125,18.0938 308.8125,20.1719 308.8125,22.8906 L308.8125,24.0156 C308.8125,26.5938 310.9219,28.4844 313.8125,28.4844 C315.0313,28.4844 316.1875,28.1875 316.9375,27.6406 C317.5156,27.2344 317.8438,26.7813 317.8438,26.3906 C317.8438,25.9375 317.4531,25.5469 316.9844,25.5469 C316.7656,25.5469 316.5625,25.625 316.375,25.8125 C315.9219,26.2969 315.9219,26.2969 315.7344,26.3906 C315.3125,26.6563 314.625,26.7813 313.8594,26.7813 C311.8125,26.7813 310.5156,25.6875 310.5156,23.9844 L310.5156,22.8906 C310.5156,21.1094 311.7656,19.7969 313.5,19.7969 C314.0781,19.7969 314.6875,19.9531 315.1563,20.2031 C315.6406,20.4844 315.8125,20.7031 315.9063,21.1094 C315.9688,21.5156 316,21.6406 316.1406,21.7656 C316.2813,21.9063 316.5156,22.0156 316.7344,22.0156 C317,22.0156 317.2656,21.875 317.4375,21.6563 C317.5469,21.5 317.5781,21.3125 317.5781,20.8906 L317.5781,19.4688 C317.5781,19.0313 317.5625,18.9063 317.4688,18.75 C317.3125,18.4844 317.0313,18.3438 316.7344,18.3438 C316.4375,18.3438 316.2344,18.4375 316.0156,18.75 L315.8438,18.6719 Z " fill="#000000"/><text fill="#000000" font-family="sans-serif" font-size="14" lengthAdjust="spacing" textLength="208" x="327.5" y="27.8467">UIDynamicAnimatorDelegate</text><line style="stroke:#181818;stroke-width:0.5;" x1="299.5" x2="537.5" y1="39" y2="39"/><line style="stroke:#181818;stroke-width:0.5;" x1="299.5" x2="537.5" y1="47" y2="47"/></g><!--reverse link UIView to BoardView--><g id="link_UIView_BoardView"><path codeLine="116" d="M1065.7399,442.4645 C1075.1299,489.0055 1093.63,579.033 1114.5,669 C1126,718.577 1139.62,773.341 1151.34,819.37 " fill="none" id="UIView-backto-BoardView" style="stroke:#181818;stroke-width:1.0;"/><polygon fill="none" points="1062.18,424.82,1059.8584,443.6511,1071.6214,441.2778,1062.18,424.82" style="stroke:#181818;stroke-width:1.0;"/><text fill="#000000" font-family="sans-serif" font-size="13" lengthAdjust="spacing" textLength="47" x="1125.5" y="712.0669">inherits</text></g><!--reverse link UIDynamicBehavior to DiscBehavior--><g id="link_UIDynamicBehavior_DiscBehavior"><path codeLine="117" d="M1286.5,73.27 C1286.5,125.26 1286.5,234.9 1286.5,319.287 " fill="none" id="UIDynamicBehavior-backto-DiscBehavior" style="stroke:#181818;stroke-width:1.0;"/><polygon fill="none" points="1286.5,55.27,1280.5,73.27,1292.5,73.27,1286.5,55.27" style="stroke:#181818;stroke-width:1.0;"/><text fill="#000000" font-family="sans-serif" font-size="13" lengthAdjust="spacing" textLength="47" x="1287.5" y="98.0669">inherits</text></g><!--reverse link UITableViewController to TableViewController--><g id="link_UITableViewController_TableViewController"><path codeLine="118" d="M1762.5,73.27 C1762.5,114.45 1762.5,185.1 1762.5,262.12 " fill="none" id="UITableViewController-backto-TableViewController" style="stroke:#181818;stroke-width:1.0;"/><polygon fill="none" points="1762.5,55.27,1756.5,73.27,1768.5,73.27,1762.5,55.27" style="stroke:#181818;stroke-width:1.0;"/><text fill="#000000" font-family="sans-serif" font-size="13" lengthAdjust="spacing" textLength="47" x="1763.5" y="98.0669">inherits</text></g><!--reverse link ViewController to ReplayViewController--><g id="link_ViewController_ReplayViewController"><path codeLine="119" d="M230.9913,686.7146 C224.4823,712.6746 222.373,721.09 216.165,745.852 " fill="none" id="ViewController-backto-ReplayViewController" style="stroke:#181818;stroke-width:1.0;"/><polygon fill="none" points="235.369,669.255,225.1715,685.2553,236.8112,688.1738,235.369,669.255" style="stroke:#181818;stroke-width:1.0;"/><text fill="#000000" font-family="sans-serif" font-size="13" lengthAdjust="spacing" textLength="47" x="226.5" y="712.0669">inherits</text></g><!--reverse link UIView to ReplayViewController.EllipseViewReplay--><g id="link_UIView_ReplayViewController.EllipseViewReplay"><path codeLine="120" d="M1054.6426,442.6319 C1051.8626,493.2359 1053.4,596.924 1114.5,669 C1144.76,704.695 1284.15,707.331 1310.5,746 C1400.11,877.479 1392.99,967.942 1310.5,1104 C1295.75,1128.337 1274.92,1148.43 1251.46,1164.962 " fill="none" id="UIView-backto-ReplayViewController.EllipseViewReplay" style="stroke:#181818;stroke-width:1.0;"/><polygon fill="none" points="1055.63,424.659,1048.6517,442.3028,1060.6336,442.961,1055.63,424.659" style="stroke:#181818;stroke-width:1.0;"/><text fill="#000000" font-family="sans-serif" font-size="13" lengthAdjust="spacing" textLength="47" x="1376.5" y="929.5669">inherits</text></g><!--reverse link UIViewController to ViewController--><g id="link_UIViewController_ViewController"><path codeLine="121" d="M200.158,72.4481 C205.811,90.5081 208.946,100.53 218.756,131.88 " fill="none" id="UIViewController-backto-ViewController" style="stroke:#181818;stroke-width:1.0;"/><polygon fill="none" points="194.781,55.27,194.4319,74.2405,205.884,70.6558,194.781,55.27" style="stroke:#181818;stroke-width:1.0;"/><text fill="#000000" font-family="sans-serif" font-size="13" lengthAdjust="spacing" textLength="47" x="208.5" y="98.0669">inherits</text></g><!--reverse link UIDynamicAnimatorDelegate to ViewController--><g id="link_UIDynamicAnimatorDelegate_ViewController"><path codeLine="122" d="M405.7358,72.4345 C400.0328,90.4945 396.867,100.53 386.973,131.88 " fill="none" id="UIDynamicAnimatorDelegate-backto-ViewController" style="stroke:#181818;stroke-width:1.0;"/><polygon fill="none" points="411.156,55.27,400.0143,70.6278,411.4573,74.2413,411.156,55.27" style="stroke:#181818;stroke-width:1.0;"/><text fill="#000000" font-family="sans-serif" font-size="13" lengthAdjust="spacing" textLength="47" x="403.5" y="98.0669">inherits</text></g><!--reverse link UIView to ViewController.EllipseView--><g id="link_UIView_ViewController.EllipseView"><path codeLine="123" d="M1024.8349,438.0458 C953.7859,517.5398 730.606,767.243 633.263,876.155 " fill="none" id="UIView-backto-ViewController.EllipseView" style="stroke:#181818;stroke-width:1.0;"/><polygon fill="none" points="1036.83,424.625,1020.3613,434.0475,1029.3085,442.0442,1036.83,424.625" style="stroke:#181818;stroke-width:1.0;"/><text fill="#000000" font-family="sans-serif" font-size="13" lengthAdjust="spacing" textLength="47" x="783.5" y="712.0669">inherits</text></g><!--reverse link UIView to DiscsBezierPathView--><g id="link_UIView_DiscsBezierPathView"><path codeLine="124" d="M1048.1603,442.1681 C1029.9003,521.6621 973.502,767.243 948.488,876.155 " fill="none" id="UIView-backto-DiscsBezierPathView" style="stroke:#181818;stroke-width:1.0;"/><polygon fill="none" points="1052.19,424.625,1042.3126,440.8249,1054.008,443.5114,1052.19,424.625" style="stroke:#181818;stroke-width:1.0;"/><text fill="#000000" font-family="sans-serif" font-size="13" lengthAdjust="spacing" textLength="47" x="988.5" y="712.0669">inherits</text></g><!--reverse link ReplayViewController to ReplayViewController.EllipseViewReplay--><g id="link_ReplayViewController_ReplayViewController.EllipseViewReplay"><path codeLine="125" d="M347.7993,1102.5204 C353.4923,1106.0474 345.663,1100.937 351.5,1104 C501.015,1182.461 689.92,1215.1085 834.398,1228.4677 " fill="none" id="ReplayViewController-backto-ReplayViewController.EllipseViewReplay" style="stroke:#181818;stroke-width:1.0;"/><ellipse cx="340.9986" cy="1098.3072" fill="#FFFFFF" rx="8" ry="8" style="stroke:#181818;stroke-width:1.0;"/><line style="stroke:#181818;stroke-width:1.0;" x1="347.7993" x2="334.198" y1="1102.5204" y2="1094.094"/><line style="stroke:#181818;stroke-width:1.0;" x1="336.7854" x2="345.2119" y1="1105.1079" y2="1091.5066"/></g><!--reverse link ViewController to ViewController.EllipseView--><g id="link_ViewController_ViewController.EllipseView"><path codeLine="126" d="M457.8095,683.2674 C501.7735,763.0294 537.568,827.969 564.235,876.349 " fill="none" id="ViewController-backto-ViewController.EllipseView" style="stroke:#181818;stroke-width:1.0;"/><ellipse cx="453.9477" cy="676.2612" fill="#FFFFFF" rx="8" ry="8" style="stroke:#181818;stroke-width:1.0;"/><line style="stroke:#181818;stroke-width:1.0;" x1="457.8095" x2="450.086" y1="683.2674" y2="669.255"/><line style="stroke:#181818;stroke-width:1.0;" x1="446.9415" x2="460.954" y1="680.123" y2="672.3995"/></g><!--SRC=[hLTjR-Cs3FxkN-7UXvsBBVS3ZAA7lBHTW5nlQD8TXc4e59j9X2gI8SdDzMxRRnyfoOxjE4aFs9Us9XzI94K-LD_7yyKVinlyENnOH95vvh9WccrZis6vsd6vZbTC68ZU1-3D_IGoO6F9jc0Abi4SoC0g7Kib8OgYJ31ZudSZnNJ-EuVTkvYPkFwAhwxYPFnBF67wUGxiJWF8o_ZwEluUHt7yhrOxGxyp9SgjT7zkb80vdaInfF7uxbOePci5_mPjwP9E-iJCCuc7ymqhOCPUGL_itNxYUQ6uj0OXVmRJlqYTQxPBdj9B1sKYAmMpy6iu9Y7n07Cl2vTDuc4Q43Eg3aqku-YVgWGJRh8HRDWBLzfLeIauNOZ1MYFAleQW1Sz1OxIFqp5z6AvavOV0tCAszakeoIlU3y-c3Jbvuf9R7pRBSmgcIbR3Lhr0KuA04TEQWqO9NNQUDbDRiAK0ki-nabPZJE0px96VkV4Ls6m3-GEOKbZJC4lZ-_dj4UNLM6cOCClcOAWOrnTLUfm9lAjZTZxv5unlmlEPOk4IPRbTWlwycaDcqPj9kCHihtvQAc6l2M2hjAWO0Vo0hJgLmQGDpq60XQ4G529LjA4SrCeGkqcE7fM14BTAuqb3UpoWJ6sttAQhNc2XQJuXGMrgG68RjVLPNPilN8ZnXiarKBr0saxW3IXgSfvxSCfigC4KlN-bCDvevg0ITixkDsOtn-mcbL5FO8sUV812iDUUfknJdEdAfR8uQLXHPugzU8SZ42xi0ys9qnAoDA3V2ELcfEmjryPwBCdmboeTSHNASDTzhaaQJB478nzBf47dyDH1X7CJDBSQyIGos7MPXJpWYHpR8_IHK6lqI7MgSo6tPWJVa0VeXaXtKRDi2rap_8Kd59eynqKpjWGHX8GTbTQw01wd_a_I3RnkAFdMxP86YLMoZxsZ6-pMZ4llhUPlrp7ky2RI9PIK1ilYSRbMXIE-33iBfoEZ8gRSzJ8tNtp5MzntWmnSc4QTZZRPXmFecRRptEA2xjIk3iMLMecQpbUuhI5zIaFQJfOfD-Vryd3xGfKoDulN0heROdm8yHrZxrquMD7-GlICsWyD6NLRNwwM5PzBYopfv0jMt86nfOO7oDHQ8htxPMvsl806S4xV_T2wNGyQjUhu4xsE54MJrj-t5L6S6CT1JH6dG7joeA-ir1hxyQpLUg_eqWPzin-UfrQoOPO6GHWEya2pKRj5gULGvYwQ8TvtU5mOYqyYpzWvkd2VgOMlTgRMdKN9yqarVqzXz70n-EaxPd4ZyneS677eztPtHnRT5UPQfYia1fYfZ96Bn1_j-gMxqv4Tjbo2opR9mMI7RWw9fBNwL-XzB9J17gLNPM9LsuMdg8EzAu1fprizw1QXDTNXqeuiomOpzGnkaxZE3763XFv70kgyeZjZMJ-cE_9pIxq6cq1mzFV-VTly5u02U9nwftyF1er_ODAOomreRarKPx5_r1EszSnlmNkVnsJIfsXOzfdqlcfQf-sZV-DoEh3kdddgj0wzJF31iSR1Fs-u3_D44nwnw6k21hItHZ-_kI1HZ-Lnc_y0]--></g></svg>